<?xml version="1.0" encoding="utf-8"?>
<!-- Generator: Adobe Illustrator 15.0.0, SVG Export Plug-In . SVG Version: 6.00 Build 0)  -->
<!DOCTYPE svg PUBLIC "-//W3C//DTD SVG 1.1//EN" "http://www.w3.org/Graphics/SVG/1.1/DTD/svg11.dtd">
<svg version="1.1" id="Layer_1" xmlns="http://www.w3.org/2000/svg" xmlns:xlink="http://www.w3.org/1999/xlink" x="0px" y="0px"
	 width="32px" height="32px" viewBox="0 0 32 32" enable-background="new 0 0 32 32" xml:space="preserve">
<g>
	<g>
		<path fill="#27BFD0" d="M0,16c0,8.837,7.164,16,16,16V0C7.164,0,0,7.163,0,16z"/>
		<path fill="#0CB5C3" d="M16,0v32c8.836,0,16-7.163,16-16S24.836,0,16,0z"/>
	</g>
	<path fill="#FFFBD9" d="M19.076,17.73c0.839,0-1.086,0.883-3.016,0.883c-1.931,0-3.869-0.883-3.06-0.883
		c1.621,0,1.354-3.748,1.354-3.748h3.368C17.723,13.983,17.399,17.73,19.076,17.73z"/>
	<g>
		<path fill="#008B87" d="M19.253,17.422c-0.747,0.983-3.231,0.979-3.231,0.979s-2.546,0.014-3.295-0.956
			c-4.052,0-3.697,5.022-3.697,5.022h13.918C22.948,22.467,23.531,17.422,19.253,17.422z"/>
		<path fill="#FFFBD9" d="M19.479,11.104c0,1.691-0.396,5.395-3.482,5.395c-3.089,0-3.483-3.703-3.483-5.395
			c0-1.69,1.56-3.062,3.483-3.062S19.479,9.413,19.479,11.104z"/>
	</g>
</g>
</svg>
